<svg width="17" height="19" viewBox="0 0 17 19" fill="none" xmlns="http://www.w3.org/2000/svg">
<path d="M5.34375 5.34375V7.125H11.2812V5.34375C11.2812 3.70352 9.95273 2.375 8.3125 2.375C6.67227 2.375 5.34375 3.70352 5.34375 5.34375ZM2.96875 7.125V5.34375C2.96875 2.39355 5.3623 0 8.3125 0C11.2627 0 13.6562 2.39355 13.6562 5.34375V7.125H14.25C15.56 7.125 16.625 8.19004 16.625 9.5V16.625C16.625 17.935 15.56 19 14.25 19H2.375C1.06504 19 0 17.935 0 16.625V9.5C0 8.19004 1.06504 7.125 2.375 7.125H2.96875Z" fill="#666666"/>
</svg>
